<svg xmlns="http://www.w3.org/2000/svg" viewBox="0 0 535.74 534.65"><defs><style>.cls-1{fill:#d8d8d8;}</style></defs><title>Computer</title><g id="Layer_2" data-name="Layer 2"><g id="Layer_1-2" data-name="Layer 1"><path d="M469.33,112.29a8.54,8.54,0,0,0-4.83-1.48H81.11a8.65,8.65,0,0,0-8.65,8.65V355.62a8.65,8.65,0,0,0,8.65,8.65H223.25v38.37H176.53a7.93,7.93,0,0,0,0,15.85H369.08a7.9,7.9,0,0,0,7.93-7.88s0,0,0-.05a7.93,7.93,0,0,0-7.93-7.93H322.37V364.25H464.51a8.66,8.66,0,0,0,8.65-8.65V119.46A8.64,8.64,0,0,0,469.33,112.29Z"/><path class="cls-1" d="M89.26,127v221H456.34V127Z"/><path d="M306.62,200.53a3.15,3.15,0,0,1-.08-4.46l.08-.08,4.92-4.92A3.15,3.15,0,0,1,316,191l.08.08L362,237a3.15,3.15,0,0,1,.08,4.46l-.08.08-45.93,45.93a3.15,3.15,0,0,1-4.46.08l-.08-.08-4.92-4.92a3.15,3.15,0,0,1-.08-4.46l.08-.08,38.73-38.73ZM250.53,305.12l6.11,1.67a3.14,3.14,0,0,0,3.85-2.16l36.76-127.25a3.19,3.19,0,0,0-2.17-3.95L289,171.76a3.14,3.14,0,0,0-3.85,2.16L248.36,301.17a3.18,3.18,0,0,0,2.16,3.94ZM183.6,241.54l45.93,45.93a3.15,3.15,0,0,0,4.46.08l.08-.08,4.92-4.92a3.15,3.15,0,0,0,.08-4.46L239,278l-38.73-38.73L239,200.54a3.15,3.15,0,0,0,.08-4.46L239,196l-4.92-4.92a3.15,3.15,0,0,0-4.46-.08l-.08.08L183.6,237a3.15,3.15,0,0,0-.08,4.45Z"/><path d="M267.65,534.65l-17.44-.94-17.64.49-17.1-4.12-17.06-3.91-17.11-4-15.9-7.52-16.25-6.56-14.65-9.67L119.18,490,105.06,479.7l-13.61-11L77.78,457.66,66.92,443.82,54.23,431.54l-8-15.82L35.11,402l-7.84-15.71L20,370.38l-4.46-17L8.26,337.3,5.93,319.86,2.64,302.69,0,285.33l1.53-17.55.68-17.41L2,232.81l3.81-17.11,4.77-16.8,5-16.67,4.61-16.93,8.44-15.36L36,134l8.92-15.09,9.5-14.8L65.61,90.6,79.32,79.45l11.75-13,14.49-9.9,13.08-11.77,15.92-7.52,14.63-9.69,16.05-7,16.09-7,17.37-3,16.69-5.39L232.7,2.33,250.1,0l17.56,1.17,17.54-.9L302.5,3.2l17.08,3.61L336.9,9.39l16.82,4.87L370.3,20,386,27.86l15.26,8.55L416.7,44.7l14.65,9.74L443.47,67.3l13.89,10.79,10.55,14.1,12.23,12.57,10.63,14,8,15.66,8.72,15.15,8.6,15.36,3.76,17.29,5.12,16.66,6.2,16.53,1.23,17.56.78,17.45,2.54,17.41.06,17.57-3.67,17.25-.92,17.6L527,337.3l-5.86,16.56-6.41,16.3-8.08,15.51-7.92,15.55-7.54,16-10.55,14.07L468,443.47,456.6,456.73l-13.31,11.34-12.2,12.72-15.23,8.83L401,498.85l-14.59,9.86-16,7.3-16.56,5.87-17.1,4-17,4.14-17.3,2.54-17.43,1.12Zm0-532-18.12.23-17.74,4-18,1.75-17.55,4.31-16.84,6.53-17.31,5.29-16,8.45-16.54,7.5L115,51.5,100.52,62.35,87,74.37,75.18,88l-13,12.57-9.33,15.55L40.6,129.73l-7,16.82-8.22,16-6.58,16.79-7.2,16.69-2.05,18.1L4.88,231.67l-1.35,18,.34,18.07L2.39,285.93,4.11,304,9,321.52l3.3,17.79L17,356.86l6.7,16.88L33,389.37l7.73,16.41,10.86,14.53,11.26,14.11,12.54,13L88,460.12l12,13.67,15.29,9.78,14.25,11.25L146.3,502l15.44,9.64,17.43,5.15,17.13,5.71L214,525.89,231.47,531l18.15.35,18,.68,18-1.25,18.14-.12,17.56-4.5,17.85-3.06,17.53-4.72,16.33-8,16.21-8,15.47-9.28,15.46-9.32,14.59-10.68,12.83-12.75,12.26-13.18,13.53-12.13L483,419.8l11.56-14,7.63-16.47,7.34-16.47,8.06-16.23,5-17.4,2.83-17.86L531,304l1.76-18.06-1.71-18.13,1-18.09-.94-18.13-5-17.49-4.86-17.34-3.57-17.8-8.42-16.08-7.62-16.3-8.14-16.1-9.71-15.23-10.2-15-12.2-13.41L447.2,75.53,433.88,63.45,420.73,50.9l-15.54-9.31L389.83,32,372.64,26l-16.15-8.25-17.26-5.51-18-2.53-17.74-3L285.66,4.58Z"/></g></g></svg>