<svg xmlns="http://www.w3.org/2000/svg" viewBox="0 0 535.59 536.93"><defs><style>.cls-1{fill:none;}.cls-2{fill:#fff;}.cls-3{opacity:0.1;isolation:isolate;}</style></defs><title>Electrical</title><g id="Layer_2" data-name="Layer 2"><g id="Layer_1-2" data-name="Layer 1"><path d="M197.26,200.28V183.44a6.08,6.08,0,0,0-12.17,0v16.84Z"/><path d="M160.52,200.28V183.44a6.08,6.08,0,0,0-12.17,0v16.84Z"/><path d="M367,200.28V183.44a6.08,6.08,0,0,0-12.17,0v16.84Z"/><path d="M403.79,200.28V183.44a6.08,6.08,0,0,0-12.17,0v16.84Z"/><path d="M171.87,121.5a6.08,6.08,0,0,1-6.08-6.08V97.17a6.08,6.08,0,1,1,12.17,0v18.25A6.08,6.08,0,0,1,171.87,121.5Z"/><path d="M208.61,121.5a6.08,6.08,0,0,1-6.08-6.08V97.17a6.08,6.08,0,1,1,12.17,0v18.25A6.08,6.08,0,0,1,208.61,121.5Z"/><path d="M334.6,121.5a6.08,6.08,0,0,1-6.08-6.08V97.17a6.08,6.08,0,1,1,12.17,0v18.25A6.08,6.08,0,0,1,334.6,121.5Z"/><path d="M371.34,121.5a6.08,6.08,0,0,1-6.08-6.08V97.17a6.08,6.08,0,1,1,12.17,0v18.25A6.08,6.08,0,0,1,371.34,121.5Z"/><path class="cls-1" d="M168.74,442.92,238,127.5a8.3,8.3,0,0,1,8.11-6.51h56.44a8.3,8.3,0,0,1,8.11,6.51L380,442.92Z"/><path d="M204.42,306.36a6.08,6.08,0,0,1-3.87-10.78l120.32-99.16a6.08,6.08,0,1,1,7.74,9.39L208.28,305A6.05,6.05,0,0,1,204.42,306.36Z"/><path d="M225.88,208.54a6.08,6.08,0,0,1-4.3-10.39l79.86-79.79A6.08,6.08,0,1,1,310,127l-79.86,79.79A6.07,6.07,0,0,1,225.88,208.54Z"/><path d="M344.34,306.36a6.06,6.06,0,0,1-3.87-1.39L221,206.51a6.08,6.08,0,1,1,7.74-9.39l119.46,98.46a6.08,6.08,0,0,1-3.87,10.78Z"/><path d="M181.14,404.08a6.08,6.08,0,0,1-3-11.36l167.13-96.23A6.08,6.08,0,0,1,351.29,307L184.17,403.27A6.06,6.06,0,0,1,181.14,404.08Z"/><path d="M369.59,405.48a6.05,6.05,0,0,1-3.06-.83L198,306.48A6.08,6.08,0,0,1,204.1,296l168.56,98.18a6.09,6.09,0,0,1-3.07,11.34Z"/><path class="cls-2" d="M154.43,154.13a17.28,17.28,0,1,0,17.29,17.28A17.31,17.31,0,0,0,154.43,154.13Z"/><path class="cls-2" d="M191.17,154.13a17.28,17.28,0,1,0,17.29,17.28A17.31,17.31,0,0,0,191.17,154.13Z"/><path class="cls-2" d="M361,154.13a17.28,17.28,0,1,0,17.29,17.28A17.31,17.31,0,0,0,361,154.13Z"/><path class="cls-2" d="M397.7,154.13A17.28,17.28,0,1,0,415,171.41,17.31,17.31,0,0,0,397.7,154.13Z"/><path class="cls-2" d="M189.16,85.14a17.29,17.29,0,1,0-17.29,17.28A17.31,17.31,0,0,0,189.16,85.14Z"/><path class="cls-2" d="M208.61,67.86A17.28,17.28,0,1,0,225.9,85.14,17.31,17.31,0,0,0,208.61,67.86Z"/><path class="cls-2" d="M351.89,85.14a17.29,17.29,0,1,0-17.29,17.28A17.31,17.31,0,0,0,351.89,85.14Z"/><path class="cls-2" d="M371.34,102.42A17.28,17.28,0,1,0,354,85.14,17.31,17.31,0,0,0,371.34,102.42Z"/><path class="cls-3" d="M145.76,171.41a17.32,17.32,0,0,1,13-16.74,17.28,17.28,0,1,0,0,33.48A17.31,17.31,0,0,1,145.76,171.41Z"/><path class="cls-3" d="M182.5,171.41a17.32,17.32,0,0,1,13-16.74,17.28,17.28,0,1,0,0,33.48A17.31,17.31,0,0,1,182.5,171.41Z"/><path class="cls-3" d="M352.29,171.41a17.32,17.32,0,0,1,13-16.74,17.28,17.28,0,1,0,0,33.48A17.31,17.31,0,0,1,352.29,171.41Z"/><path class="cls-3" d="M389,171.41a17.32,17.32,0,0,1,13-16.74,17.28,17.28,0,1,0,0,33.48A17.31,17.31,0,0,1,389,171.41Z"/><path class="cls-3" d="M163.2,85.14a17.32,17.32,0,0,1,13-16.74,17.28,17.28,0,1,0,0,33.48A17.31,17.31,0,0,1,163.2,85.14Z"/><path class="cls-3" d="M199.94,85.14a17.32,17.32,0,0,1,13-16.74,17.28,17.28,0,1,0,0,33.48A17.31,17.31,0,0,1,199.94,85.14Z"/><path class="cls-3" d="M325.93,85.14a17.32,17.32,0,0,1,13-16.74,17.28,17.28,0,1,0,0,33.48A17.31,17.31,0,0,1,325.93,85.14Z"/><path class="cls-3" d="M362.67,85.14a17.32,17.32,0,0,1,13-16.74,17.28,17.28,0,1,0,0,33.48A17.31,17.31,0,0,1,362.67,85.14Z"/><path d="M322.88,208.54a6.06,6.06,0,0,1-4.3-1.78l-80.25-80.17a6.08,6.08,0,1,1,8.6-8.61l80.25,80.17a6.08,6.08,0,0,1-4.3,10.39Z"/><path d="M423,207.77H125.76a6.08,6.08,0,0,1,0-12.17H423a6.08,6.08,0,0,1,0,12.17Z"/><path d="M370.12,404.92H178.65a6.08,6.08,0,0,1,0-12.17H370.12a6.08,6.08,0,1,1,0,12.17Z"/><path d="M391.92,127.07H156.84a6.08,6.08,0,0,1,0-12.17H391.92a6.08,6.08,0,0,1,0,12.17Z"/><path d="M254.71,127.07a6.08,6.08,0,0,1-6.08-6.08V104.6a6.08,6.08,0,1,1,12.17,0V121A6.08,6.08,0,0,1,254.71,127.07Z"/><path d="M294,127.07A6.08,6.08,0,0,1,288,121V104.6a6.08,6.08,0,1,1,12.17,0V121A6.08,6.08,0,0,1,294,127.07Z"/><path d="M346.83,306.36H201.57a6.08,6.08,0,0,1,0-12.17H346.83a6.08,6.08,0,0,1,0,12.17Z"/><path d="M380,448.21a6.09,6.09,0,0,1-5.94-4.78L304.76,128.8a2.23,2.23,0,0,0-2.17-1.74H246.16a2.23,2.23,0,0,0-2.17,1.74L174.68,443.43a6.08,6.08,0,0,1-11.88-2.62l69.31-314.62a14.47,14.47,0,0,1,14.05-11.29H302.6a14.47,14.47,0,0,1,14.05,11.29L386,440.81a6.09,6.09,0,0,1-5.95,7.39Z"/><path d="M195.51,455.2a4.1,4.1,0,0,1-4.1,4.09h-50a4.1,4.1,0,0,1-4.1-4.09V447a4.1,4.1,0,0,1,4.1-4.09h50a4.1,4.1,0,0,1,4.1,4.09v8.19Z"/><path d="M411.41,455.2a4.1,4.1,0,0,1-4.1,4.09h-50a4.1,4.1,0,0,1-4.1-4.09V447a4.1,4.1,0,0,1,4.1-4.09h50a4.1,4.1,0,0,1,4.1,4.09Z"/><path d="M267.58,535.18,250,536.89l-17.38-2.51-17.54-1.56-16.63-5.94-17.14-3.82-15.92-7.41-16.3-6.41-15.35-8.45-14.19-10.27L104,482.16l-13.74-11-10.91-14L67,444.85,55.79,431.5,44.36,418.13l-9.47-14.8L28.33,387,19.63,371.7,14,355.09l-5-16.8L4.14,321.4,2,304l-.57-17.52L0,269l1.61-17.44-.29-17.62,4.46-17,4.57-16.85,2.73-17.46,6.43-16.36,7.25-16,9.52-14.78,9.52-14.64,8.42-15.53,12.9-12.08L78.49,79.9,90.79,67.4,104.15,56l15-9.22L133.06,36l16.62-6.08,16-7,15.59-8.25,16.81-5.1,17.52-1.91,17-4.21,17.53-.39L267.58,0l17.53,1.57L302.47,4l17.32,2.55,16.8,4.92,16.83,4.64L370.29,21l15.25,8.76,15.77,7.56,14.15,10.31,15.63,8.24,13.06,11.75,12.67,12.11,11.77,13,11,13.57,11.49,13.34,7,16.27,9.81,14.57,6.2,16.4,5.74,16.48,4.8,16.75,6.81,16.4.51,17.68,1.55,17.38L534,269l1.56,17.57-1.36,17.54-5.67,16.81-1.39,17.64L521.06,355l-6.45,16.27-6.21,16.43-9.74,14.65-7.38,16.06-11.15,13.62-12,12.8-10.48,14.2L443.3,469.38l-13.65,10.85-12.74,12.26-16.19,7.13-15,8.91L370.32,517l-16.87,4.9-17,4.17L320,532.41l-17.5,1.6-17.33,2.92Zm0-532-18,2.88-18,1-17.53,4.32-18,2.29-16.81,6.71L162,25.79,146,34.39l-15.82,8.7L114.44,52l-13,12.75-13.38,12L73.38,87.63l-11.52,14-10.8,14.54-8.7,15.88L33.7,147.83l-9.53,15.45L19,180.68l-6,17L8.69,215.2,6.54,233.12,4,251,2.27,269l1.5,18,.79,18.1,5,17.46,2.66,17.93L17.09,358,26,373.91l7.51,16.35,8.85,15.67,8.75,15.85,10.7,14.61,13.55,12.12,11.15,14.37,14.18,11.27,14.78,10.36,15.21,9.64,15.09,10,17,6.16,15.86,9L195.87,525l18.09,2.1,17.74,3L249.45,534l18.13-.81,18.12.69,17.69-4.34,17.9-2.05L339,524l17.14-5.73,17.2-5.72,16.17-8.18,15.06-10,16-8.53,13.93-11.58,14.46-11,11-14.51,12.42-13.07,11.05-14.27,10.17-14.93,9-15.69L509,373.85,518.17,358l3.8-17.78L527.34,323l3.48-17.79,2.09-18L530.59,269l1.73-18.11-1.71-18-3-17.88-6.33-17-5.76-17-4-17.86L501.4,147.86l-7.92-16.22-9.67-15.26L472,102.7,461.38,88,447,76.84,434.19,64.18,420.48,52.36l-16.21-8.18L389.69,33.29,373.46,25.2l-17.72-4.31L339.29,13,321.51,9.45l-18-1.7L285.66,4.58Z"/></g></g></svg>