<svg xmlns="http://www.w3.org/2000/svg" viewBox="0 0 535.59 536.93"><title>Electronics</title><g id="Layer_2" data-name="Layer 2"><g id="Layer_1-2" data-name="Layer 1"><path d="M267.58,535.18,250,536.89l-17.38-2.51-17.54-1.56-16.63-5.94-17.14-3.82-15.92-7.41-16.3-6.41-15.35-8.45-14.19-10.27L104,482.16l-13.74-11-10.91-14L67,444.85,55.79,431.5,44.36,418.13l-9.47-14.8L28.33,387,19.63,371.7,14,355.09l-5-16.8L4.14,321.4,2,304l-.57-17.52L0,269l1.61-17.44-.29-17.62,4.46-17,4.57-16.85,2.73-17.46,6.43-16.36,7.25-16,9.52-14.78,9.52-14.64,8.42-15.53,12.9-12.08L78.49,79.9,90.79,67.4,104.15,56l15-9.22L133.06,36l16.62-6.08,16-7,15.59-8.25,16.81-5.1,17.52-1.91,17-4.21,17.53-.39L267.58,0l17.53,1.57L302.47,4l17.32,2.55,16.8,4.92,16.83,4.64L370.29,21l15.25,8.76,15.77,7.56,14.15,10.31,15.63,8.24,13.06,11.75,12.67,12.11,11.77,13,11,13.57,11.49,13.34,7,16.27,9.81,14.57,6.2,16.4,5.74,16.48,4.8,16.75,6.81,16.4.51,17.68,1.55,17.38L534,269l1.56,17.57-1.36,17.54-5.67,16.81-1.39,17.64L521.06,355l-6.45,16.27-6.21,16.43-9.74,14.65-7.38,16.06-11.15,13.62-12,12.8-10.48,14.2L443.3,469.38l-13.65,10.85-12.74,12.26-16.19,7.13-15,8.91L370.32,517l-16.87,4.9-17,4.17L320,532.41l-17.5,1.6-17.33,2.92Zm0-532-18,2.88-18,1-17.53,4.32-18,2.29-16.81,6.71L162,25.79,146,34.39l-15.82,8.7L114.44,52l-13,12.75-13.38,12L73.38,87.63l-11.52,14-10.8,14.54-8.7,15.88L33.7,147.83l-9.53,15.45L19,180.68l-6,17L8.69,215.2,6.54,233.12,4,251,2.27,269l1.5,18,.79,18.1,5,17.46,2.66,17.93L17.09,358,26,373.91l7.51,16.35,8.85,15.67,8.75,15.85,10.7,14.61,13.55,12.12,11.15,14.37,14.18,11.27,14.78,10.36,15.21,9.64,15.09,10,17,6.16,15.86,9L195.87,525l18.09,2.1,17.74,3L249.45,534l18.13-.81,18.12.69,17.69-4.34,17.9-2.05L339,524l17.14-5.73,17.2-5.72,16.17-8.18,15.06-10,16-8.53,13.93-11.58,14.46-11,11-14.51,12.42-13.07,11.05-14.27,10.17-14.93,9-15.69L509,373.85,518.17,358l3.8-17.78L527.34,323l3.48-17.79,2.09-18L530.59,269l1.73-18.11-1.71-18-3-17.88-6.33-17-5.76-17-4-17.86L501.4,147.86l-7.92-16.22-9.67-15.26L472,102.7,461.38,88,447,76.84,434.19,64.18,420.48,52.36l-16.21-8.18L389.69,33.29,373.46,25.2l-17.72-4.31L339.29,13,321.51,9.45l-18-1.7L285.66,4.58Z"/><path d="M128.13,135.47a20.91,20.91,0,0,0,11.3-3.2c11.65,8.17,51.21,36.6,57.57,40.51,5.65,3.55,10.59,6.75,18,7.11,3.53,0,11.3.35,23.31.35a15.5,15.5,0,0,0,13.77,8.53,15.64,15.64,0,0,0,0-31.27,15.55,15.55,0,0,0-15.19,12.44c-10.95,0-18.36,0-21.54-.35-4.59,0-7.42-1.78-12.71-5.33-5.65-3.55-43.09-30.56-55.8-39.45a23,23,0,0,0,2.47-10,20.94,20.94,0,0,0-20.84-21,21.17,21.17,0,0,0-20.84,21A20.34,20.34,0,0,0,128.13,135.47Zm0-31.63a10.31,10.31,0,1,1-10.24,10.31A10.28,10.28,0,0,1,128.13,103.84Z"/><path d="M149,231.43H180a15.3,15.3,0,0,0,14.48,10.31,15.64,15.64,0,0,0,0-31.27A15.3,15.3,0,0,0,180,220.76H149a21.21,21.21,0,0,0-20.13-15.64,20.94,20.94,0,0,0-20.84,21,21.17,21.17,0,0,0,20.84,21A19.86,19.86,0,0,0,149,231.43Zm-30.37-5.33a10.24,10.24,0,1,1,10.24,10.31C123.18,236.76,118.59,231.78,118.59,226.1Z"/><path d="M153.56,287.58a20.89,20.89,0,0,0,20.13-15.64H180a15.3,15.3,0,0,0,14.48,10.31,15.64,15.64,0,0,0,0-31.27A15.3,15.3,0,0,0,180,261.28h-6.36a21.21,21.21,0,0,0-20.13-15.64,21,21,0,0,0,0,41.94Zm0-31.63a10.31,10.31,0,1,1-10.24,10.31A10.28,10.28,0,0,1,153.56,255.95Z"/><path d="M133.42,369.32v-36.6c0-16.7,5.65-20.26,15.19-20.26,11.65,0,24.72,0,30.37.35a15.42,15.42,0,0,0,14.83,10.31,15.64,15.64,0,0,0,0-31.27,15.3,15.3,0,0,0-14.48,10.31c-6,0-19.07-.35-30.37-.35-26.13,0-26.13,23.1-26.13,30.92V369a21.31,21.31,0,0,0-16.25,20.61,20.94,20.94,0,0,0,20.84,21,21.17,21.17,0,0,0,20.84-21A20.28,20.28,0,0,0,133.42,369.32Zm-6,30.56a10.31,10.31,0,1,1,10.24-10.31C138,395.26,133.07,399.88,127.42,399.88Z"/><path d="M421.6,369V332.71c0-7.46,0-30.92-25.78-30.92-11.65,0-24.72,0-30.37.35A15.3,15.3,0,0,0,351,291.84a15.64,15.64,0,0,0,0,31.27,16.12,16.12,0,0,0,14.83-10.31c6,0,19.07-.35,30.37-.35,9.53,0,15.19,3.2,15.19,20.26v36.6a21,21,0,1,0,26.49,20.26A21.31,21.31,0,0,0,421.6,369ZM417,399.88a10.31,10.31,0,1,1,10.24-10.31A10.28,10.28,0,0,1,417,399.88Z"/><path d="M352.38,241.73a15.5,15.5,0,0,0,13.77-8.53h25.78c24,0,24-21.32,24-28.43V126.23a19.62,19.62,0,1,0-24-19.19,19.5,19.5,0,0,0,13.77,18.84v78.9c0,14.93-4.59,17.77-13.42,17.77H367.92a15.55,15.55,0,0,0-15.19-12.44,15.73,15.73,0,0,0-15.54,15.64C336.49,234.62,343.55,241.73,352.38,241.73Zm49.8-134.34a8.83,8.83,0,1,1,8.83,8.88A9,9,0,0,1,402.18,107.4Z"/><path d="M351.32,283.31A15.3,15.3,0,0,0,365.8,273h38.14a21.21,21.21,0,0,0,20.13,15.64,21,21,0,1,0-20.13-26.3H366.16A15.3,15.3,0,0,0,351.68,252a15.73,15.73,0,0,0-15.54,15.64A15.43,15.43,0,0,0,351.32,283.31Zm73.1-25.94a10.31,10.31,0,1,1-10.24,10.31C413.83,262,418.78,257.37,424.43,257.37Z"/><path d="M244.32,199.8a22.23,22.23,0,0,0-22.25,22.39v91a22.23,22.23,0,0,0,22.25,22.39h57.21a22.23,22.23,0,0,0,22.25-22.39v-91a22.23,22.23,0,0,0-22.25-22.39H244.32Z"/><path d="M222.07,143.29A20.89,20.89,0,0,0,242.2,128h35.32c3.88,0,7.42,0,8.83,1.42.71.71,1.77,2.49,1.77,7.11,0,6.4,0,14.93-.35,21.68a15.94,15.94,0,0,0-9.89,14.57A15.54,15.54,0,1,0,298,157.86c0-6.75.35-14.93.35-21.32,0-6.75-1.41-11.73-4.59-14.57-4.59-4.62-10.59-4.26-16.24-4.26h-35a20.92,20.92,0,1,0-20.48,25.59Zm0-31.63A10.31,10.31,0,1,1,211.83,122,10.52,10.52,0,0,1,222.07,111.66Z"/><path d="M252.09,347.28A15.27,15.27,0,0,0,238,356.52h-39.2c-7.42,0-23,0-23,21v7.11a20.92,20.92,0,0,0,4.94,41.22,21,21,0,0,0,5.65-41.22c0-2.13-.35-4.62-.35-7.11,0-9.6,3.18-10.31,12.36-10.31H236.9a15.18,15.18,0,0,0,14.83,11.37,15.73,15.73,0,0,0,15.54-15.64A15.2,15.2,0,0,0,252.09,347.28ZM191,405.21a10.24,10.24,0,1,1-10.24-10.31A10.06,10.06,0,0,1,191,405.21Z"/><path d="M352.38,384.6v-7.11c0-21-15.54-21-23-21H307.88a15.09,15.09,0,0,0-14.13-9.24,15.64,15.64,0,1,0,14.83,19.9h20.84c9.18,0,12.36.71,12.36,10.31a45.54,45.54,0,0,1-.35,7.11,21,21,0,1,0,26.49,20.26A20.21,20.21,0,0,0,352.38,384.6Zm-4.94,30.92a10.28,10.28,0,0,1-10.24-10.31c0-5.69,4.59-10.66,10.24-10.66a10.28,10.28,0,0,1,10.24,10.31C357.68,410.54,353.09,415.51,347.44,415.51Z"/></g></g></svg>